<svg xmlns="http://www.w3.org/2000/svg" viewBox="0 0 83.76 83.758">
  <g id="Group_581" data-name="Group 581" transform="translate(19350.555 19183.936)">
    <path id="Path_12447" data-name="Path 12447" d="M100.472,26.46A26.46,26.46,0,1,0,55.973,45.8q-.341-.582-.646-1.186a20.7,20.7,0,0,1-2.234-9.358,20.919,20.919,0,0,1,41.837,0,20.713,20.713,0,0,1-2.313,9.515c-.181.348-.368.691-.567,1.027a26.386,26.386,0,0,0,8.422-19.334" transform="translate(-19382.686 -19183.934)" fill="#12a639"/>
    <path id="Path_12448" data-name="Path 12448" d="M88.194,28.279A17.669,17.669,0,1,1,70.526,10.611,17.668,17.668,0,0,1,88.194,28.279" transform="translate(-19379.201 -19176.961)" fill="#009ee4"/>
    <path id="Path_12446" data-name="Path 12446" d="M101.56,3.571c.244.255.484.514.718.776a29.712,29.712,0,1,1-44.313.012q.355-.4.726-.785a41.879,41.879,0,1,0,42.87,0" transform="translate(-19388.801 -19181.588)" fill="#ee7003"/>
  </g>
</svg>
